<?xml version="1.0" encoding="UTF-8" standalone="no"?>
<svg
   xmlns:dc="http://purl.org/dc/elements/1.1/"
   xmlns:cc="http://creativecommons.org/ns#"
   xmlns:rdf="http://www.w3.org/1999/02/22-rdf-syntax-ns#"
   xmlns:svg="http://www.w3.org/2000/svg"
   xmlns="http://www.w3.org/2000/svg"
   xmlns:sodipodi="http://sodipodi.sourceforge.net/DTD/sodipodi-0.dtd"
   xmlns:inkscape="http://www.inkscape.org/namespaces/inkscape"
   width="28.100908cm"
   height="15.034554cm"
   viewBox="398 -220 559.09099 299.1085"
   version="1.1"
   id="svg82"
   sodipodi:docname="rosie.svg"
   inkscape:version="0.92.2 (5c3e80d, 2017-08-06)">
  <metadata
     id="metadata88">
    <rdf:RDF>
      <cc:Work
         rdf:about="">
        <dc:format>image/svg+xml</dc:format>
        <dc:type
           rdf:resource="http://purl.org/dc/dcmitype/StillImage" />
      </cc:Work>
    </rdf:RDF>
  </metadata>
  <defs
     id="defs86" />
  <sodipodi:namedview
     pagecolor="#ffffff"
     bordercolor="#666666"
     borderopacity="1"
     objecttolerance="10"
     gridtolerance="10"
     guidetolerance="10"
     inkscape:pageopacity="0"
     inkscape:pageshadow="2"
     inkscape:window-width="1920"
     inkscape:window-height="1136"
     id="namedview84"
     showgrid="false"
     inkscape:zoom="0.16432018"
     inkscape:cx="912.13426"
     inkscape:cy="680.31495"
     inkscape:window-x="0"
     inkscape:window-y="27"
     inkscape:window-maximized="1"
     inkscape:current-layer="svg82" />
  <g
     id="g8"
     transform="translate(-3.75,-437.02083)">
    <circle
       style="fill:#ffffff"
       cx="547.375"
       cy="370.5"
       id="ellipse2"
       r="143.625" />
    <circle
       style="fill:none;fill-opacity:0;stroke:#000000;stroke-width:4"
       cx="547.375"
       cy="370.5"
       id="ellipse4"
       r="143.625" />
    <circle
       style="fill:none;fill-opacity:0;stroke:#000000;stroke-width:4"
       cx="547.375"
       cy="370.5"
       id="ellipse6"
       r="143.625" />
  </g>
  <g
     id="g22"
     transform="translate(-3.75,-437.02083)">
    <g
       id="g14">
      <rect
         style="fill:#ffffff"
         x="444"
         y="292"
         width="216"
         height="146"
         id="rect10" />
      <rect
         style="fill:none;fill-opacity:0;stroke:#000000;stroke-width:4"
         x="444"
         y="292"
         width="216"
         height="146"
         id="rect12" />
    </g>
    <line
       style="fill:none;fill-opacity:0;stroke:#000000;stroke-width:4"
       x1="450"
       y1="268"
       x2="444"
       y2="292"
       id="line16" />
    <line
       style="fill:none;fill-opacity:0;stroke:#000000;stroke-width:4"
       x1="451"
       y1="269"
       x2="522"
       y2="268"
       id="line18" />
    <line
       style="fill:none;fill-opacity:0;stroke:#000000;stroke-width:4"
       x1="521.48102"
       y1="266.78101"
       x2="528.72302"
       y2="290.08899"
       id="line20" />
  </g>
  <rect
     style="fill:none;fill-opacity:0;stroke:#000000;stroke-width:0.02;stroke-linejoin:round"
     x="2.25"
     y="504.34116"
     width="116"
     height="31.5"
     rx="4"
     ry="4"
     id="rect24" />
  <text
     font-size="22.5774"
     style="font-style:normal;font-weight:normal;font-size:22.57740021px;font-family:sans-serif;text-anchor:start;fill:#000000"
     x="510.25"
     y="-73.020828"
     id="text28">
    <tspan
       x="510.25"
       y="-73.020828"
       id="tspan26">suite.rc</tspan>
  </text>
  <text
     font-size="12.7998"
     style="font-style:normal;font-weight:normal;font-size:12.79979992px;font-family:sans-serif;text-anchor:start;fill:#000000"
     x="543.625"
     y="-66.520828"
     id="text32">
    <tspan
       x="543.625"
       y="-66.520828"
       id="tspan30" />
  </text>
  <text
     font-size="12.7998"
     style="font-style:normal;font-weight:normal;font-size:12.79979992px;font-family:sans-serif;text-anchor:start;fill:#000000"
     x="548.25"
     y="-72.020828"
     id="text36">
    <tspan
       x="548.25"
       y="-72.020828"
       id="tspan34" />
  </text>
  <text
     font-size="22.5774"
     style="font-style:normal;font-weight:normal;font-size:22.57740021px;font-family:sans-serif;text-anchor:start;fill:#000000"
     x="472.45001"
     y="25.029156"
     id="text42">
    <tspan
       x="472.45001"
       y="25.029156"
       id="tspan38">Version Control</tspan>
    <tspan
       x="472.45001"
       y="53.251171"
       id="tspan40">(FCM)</tspan>
  </text>
  <g
     id="g54"
     transform="translate(-3.75,-437.02083)">
    <line
       style="fill:none;fill-opacity:0;stroke:#000000;stroke-width:4;stroke-linejoin:round"
       x1="705.07098"
       y1="350.444"
       x2="753.237"
       y2="330.62201"
       id="line44" />
    <polygon
       style="fill:#000000"
       points="705.071,350.444 709.286,354.116 698.136,353.298 705.48,344.869 "
       id="polygon46" />
    <polygon
       style="fill:none;fill-opacity:0;stroke:#000000;stroke-width:4"
       points="705.071,350.444 709.286,354.116 698.136,353.298 705.48,344.869 "
       id="polygon48" />
    <polygon
       style="fill:#000000"
       points="753.237,330.622 749.023,326.95 760.173,327.768 752.828,336.197 "
       id="polygon50" />
    <polygon
       style="fill:none;fill-opacity:0;stroke:#000000;stroke-width:4"
       points="753.237,330.622 749.023,326.95 760.173,327.768 752.828,336.197 "
       id="polygon52" />
  </g>
  <g
     id="g70"
     transform="translate(-3.75,-437.02083)">
    <path
       style="fill:#a5a585"
       d="m 960.841,321.783 -0.135,-1.725 -0.377,-1.697 -0.647,-1.698 -0.889,-1.67 -1.105,-1.671 -1.374,-1.643 -1.616,-1.617 -1.86,-1.589 -2.101,-1.563 -2.317,-1.482 -2.533,-1.482 -2.721,-1.455 -2.991,-1.374 -3.152,-1.32 -3.341,-1.266 -3.557,-1.213 -3.691,-1.131 -3.88,-1.078 -4.014,-0.997 -4.204,-0.943 -4.284,-0.889 -4.445,-0.782 -4.554,-0.754 -4.607,-0.62 -4.742,-0.539 -4.823,-0.458 -4.85,-0.404 -4.93,-0.269 -4.958,-0.243 -4.984,-0.161 h -4.985 v 0 h -5.011 l -4.985,0.161 -4.958,0.243 -4.93,0.269 -4.85,0.404 -4.823,0.458 -4.715,0.539 -4.634,0.62 -4.554,0.754 -4.445,0.782 -4.284,0.889 -4.176,0.943 -4.015,0.997 -3.88,1.078 -3.718,1.131 -3.557,1.213 -3.314,1.266 -3.179,1.32 -2.964,1.374 -2.748,1.455 -2.533,1.482 -2.317,1.482 -2.101,1.563 -1.859,1.589 -1.617,1.617 -1.374,1.643 -1.105,1.671 -0.889,1.67 -0.647,1.698 -0.35,1.697 -0.135,1.725 v 0 l 0.135,1.724 0.35,1.671 0.647,1.724 0.889,1.67 1.105,1.671 1.374,1.643 1.617,1.617 1.859,1.59 2.101,1.535 2.317,1.509 2.533,1.482 2.748,1.455 2.964,1.374 3.179,1.32 3.314,1.267 3.557,1.212 3.718,1.132 3.88,1.078 4.015,0.997 4.176,0.943 4.284,0.889 4.445,0.781 4.554,0.727 4.634,0.647 4.715,0.539 4.823,0.458 4.85,0.377 4.93,0.297 4.958,0.215 4.985,0.162 5.011,0.027 v 0 l 4.985,-0.027 4.984,-0.162 4.958,-0.215 4.93,-0.297 4.85,-0.377 4.823,-0.458 4.742,-0.539 4.607,-0.647 4.554,-0.727 4.445,-0.781 4.284,-0.889 4.204,-0.943 4.014,-0.997 3.88,-1.078 3.691,-1.132 3.557,-1.212 3.341,-1.267 3.152,-1.32 2.991,-1.374 2.721,-1.455 2.533,-1.482 2.317,-1.509 2.101,-1.535 1.86,-1.59 1.616,-1.617 1.374,-1.643 1.105,-1.671 0.889,-1.67 0.647,-1.724 0.377,-1.671 z"
       id="path56"
       inkscape:connector-curvature="0" />
    <path
       style="fill:none;fill-opacity:0;stroke:#494936;stroke-width:0.04"
       d="m 959.682,321.244 -0.135,-1.725 -0.35,-1.643 -0.62,-1.671 -0.862,-1.643 -1.158,-1.671 -1.401,-1.589 -1.536,-1.617 -1.886,-1.509 -2.075,-1.535 -2.29,-1.509 -2.533,-1.428 -2.721,-1.428 -2.937,-1.347 -3.098,-1.348 -3.395,-1.212 -3.53,-1.186 -3.691,-1.131 -3.826,-1.051 -3.988,-0.97 -4.149,-0.943 -4.311,-0.835 -4.392,-0.782 -4.526,-0.727 -4.58,-0.62 -4.689,-0.539 -4.822,-0.431 -4.823,-0.431 -4.904,-0.242 -4.904,-0.216 -5.011,-0.135 -4.958,-0.08 v 0 l -4.957,0.08 -4.958,0.135 -4.957,0.216 -4.85,0.242 -4.85,0.431 -4.796,0.431 -4.715,0.539 -4.607,0.62 -4.5,0.727 -4.392,0.782 -4.311,0.835 -4.149,0.943 -3.961,0.97 -3.879,1.051 -3.719,1.131 -3.502,1.186 -3.341,1.212 -3.099,1.348 -2.963,1.347 -2.749,1.428 -2.478,1.428 -2.291,1.509 -2.128,1.535 -1.832,1.509 -1.59,1.617 -1.374,1.589 -1.132,1.671 -0.889,1.643 -0.62,1.671 -0.35,1.643 -0.135,1.725 v 0 l 0.135,1.67 0.35,1.644 0.62,1.697 0.889,1.644 1.132,1.643 1.374,1.617 1.59,1.59 1.832,1.535 2.128,1.509 2.291,1.536 2.478,1.455 2.749,1.374 2.963,1.374 3.099,1.32 3.341,1.24 3.502,1.185 3.719,1.105 3.879,1.078 3.961,0.97 4.149,0.943 4.311,0.862 4.392,0.754 4.5,0.701 4.607,0.62 4.715,0.538 4.796,0.458 4.85,0.405 4.85,0.269 4.957,0.216 4.958,0.134 4.957,0.054 v 0 l 4.958,-0.054 5.011,-0.134 4.904,-0.216 4.904,-0.269 4.823,-0.405 4.822,-0.458 4.689,-0.538 4.58,-0.62 4.526,-0.701 4.392,-0.754 4.311,-0.862 4.149,-0.943 3.988,-0.97 3.826,-1.078 3.691,-1.105 3.53,-1.185 3.395,-1.24 3.098,-1.32 2.937,-1.374 2.721,-1.374 2.533,-1.455 2.29,-1.536 2.075,-1.509 1.886,-1.535 1.536,-1.59 1.401,-1.617 1.158,-1.643 0.862,-1.644 0.62,-1.697 0.35,-1.644 0.135,-1.67"
       id="path58"
       inkscape:connector-curvature="0" />
    <path
       style="fill:#a5a585"
       d="m 763.507,251.326 v 71.049 h 196.175 v -71.049 z"
       id="path60"
       inkscape:connector-curvature="0" />
    <path
       style="fill:#c9c9b6"
       d="m 960.841,250.733 -0.135,-1.751 -0.377,-1.698 -0.647,-1.67 -0.889,-1.671 -1.105,-1.697 -1.374,-1.644 -1.616,-1.643 -1.86,-1.536 -2.101,-1.536 -2.317,-1.562 -2.533,-1.428 -2.721,-1.455 -2.991,-1.401 -3.152,-1.294 -3.341,-1.266 -3.557,-1.239 -3.691,-1.132 -3.88,-1.051 -4.014,-1.024 -4.204,-0.943 -4.284,-0.862 -4.445,-0.781 -4.554,-0.728 -4.607,-0.646 -4.742,-0.539 -4.823,-0.458 -4.85,-0.377 -4.93,-0.297 -4.958,-0.242 -4.984,-0.135 -4.985,-0.027 v 0 l -5.011,0.027 -4.985,0.135 -4.958,0.242 -4.93,0.297 -4.85,0.377 -4.823,0.458 -4.715,0.539 -4.634,0.646 -4.554,0.728 -4.445,0.781 -4.284,0.862 -4.176,0.943 -4.015,1.024 -3.88,1.051 -3.718,1.132 -3.557,1.239 -3.314,1.266 -3.179,1.294 -2.964,1.401 -2.748,1.455 -2.533,1.428 -2.317,1.562 -2.101,1.536 -1.859,1.536 -1.617,1.643 -1.374,1.644 -1.105,1.697 -0.889,1.671 -0.647,1.67 -0.35,1.698 -0.135,1.751 v 0 l 0.135,1.698 0.35,1.724 0.647,1.643 0.889,1.725 1.105,1.643 1.374,1.671 1.617,1.616 1.859,1.563 2.101,1.563 2.317,1.509 2.533,1.482 2.748,1.428 2.964,1.374 3.179,1.32 3.314,1.293 3.557,1.186 3.718,1.158 3.88,1.078 4.015,0.997 4.176,0.943 4.284,0.889 4.445,0.754 4.554,0.755 4.634,0.62 4.715,0.538 4.823,0.485 4.85,0.351 4.93,0.323 4.958,0.216 4.985,0.134 5.011,0.054 v 0 l 4.985,-0.054 4.984,-0.134 4.958,-0.216 4.93,-0.323 4.85,-0.351 4.823,-0.485 4.742,-0.538 4.607,-0.62 4.554,-0.755 4.445,-0.754 4.284,-0.889 4.204,-0.943 4.014,-0.997 3.88,-1.078 3.691,-1.158 3.557,-1.186 3.341,-1.293 3.152,-1.32 2.991,-1.374 2.721,-1.428 2.533,-1.482 2.317,-1.509 2.101,-1.563 1.86,-1.563 1.616,-1.616 1.374,-1.671 1.105,-1.643 0.889,-1.725 0.647,-1.643 0.377,-1.724 z"
       id="path62"
       inkscape:connector-curvature="0" />
    <path
       style="fill:none;fill-opacity:0;stroke:#494936;stroke-width:0.04"
       d="m 959.682,250.194 -0.135,-1.724 -0.35,-1.644 -0.62,-1.643 -0.862,-1.671 -1.158,-1.697 -1.401,-1.59 -1.536,-1.536 -1.886,-1.589 -2.075,-1.509 -2.29,-1.536 -2.533,-1.401 -2.721,-1.428 -2.937,-1.374 -3.098,-1.266 -3.395,-1.267 -3.53,-1.158 -3.691,-1.132 -3.826,-1.078 -3.988,-0.997 -4.149,-0.916 -4.311,-0.835 -4.392,-0.781 -4.526,-0.701 -4.58,-0.646 -4.689,-0.539 -4.822,-0.458 -4.823,-0.377 -4.904,-0.297 -1.644,-0.081 h -26.458 l -1.643,0.081 -4.85,0.297 -4.85,0.377 -4.796,0.458 -4.715,0.539 -4.607,0.646 -4.5,0.701 -4.392,0.781 -4.311,0.835 -4.149,0.916 -3.961,0.997 -3.879,1.078 -3.719,1.132 -3.502,1.158 -3.341,1.267 -3.099,1.266 -2.963,1.374 -2.749,1.428 -2.478,1.401 -2.291,1.536 -2.128,1.509 -1.832,1.589 -1.59,1.536 -1.374,1.59 -1.132,1.697 -0.889,1.671 -0.62,1.643 -0.35,1.644 -0.135,1.724 v 0 l 0.135,1.644 0.35,1.697 0.62,1.671 0.889,1.643 1.132,1.644 1.374,1.616 1.59,1.563 1.832,1.59 2.128,1.509 2.291,1.508 2.478,1.455 2.749,1.374 2.963,1.348 3.099,1.347 3.341,1.239 3.502,1.159 3.719,1.104 3.879,1.078 3.961,0.97 4.149,0.943 4.311,0.889 4.392,0.701 4.5,0.754 4.607,0.593 4.715,0.566 4.796,0.485 4.85,0.377 4.85,0.296 4.957,0.189 4.958,0.108 4.957,0.081 v 0 l 4.958,-0.081 5.011,-0.108 4.904,-0.189 4.904,-0.296 4.823,-0.377 4.822,-0.485 4.689,-0.566 4.58,-0.593 4.526,-0.754 4.392,-0.701 4.311,-0.889 4.149,-0.943 3.988,-0.97 3.826,-1.078 3.691,-1.104 3.53,-1.159 3.395,-1.239 3.098,-1.347 2.937,-1.348 2.721,-1.374 2.533,-1.455 2.29,-1.508 2.075,-1.509 1.886,-1.59 1.536,-1.563 1.401,-1.616 1.158,-1.644 0.862,-1.643 0.62,-1.671 0.35,-1.697 0.135,-1.644"
       id="path64"
       inkscape:connector-curvature="0" />
    <path
       style="fill:none;fill-opacity:0;stroke:#000000;stroke-width:0.04"
       d="M 763.507,250.194 V 321.19"
       id="path66"
       inkscape:connector-curvature="0" />
    <path
       style="fill:none;fill-opacity:0;stroke:#000000;stroke-width:0.04"
       d="M 959.682,250.194 V 321.19"
       id="path68"
       inkscape:connector-curvature="0" />
  </g>
  <text
     font-size="22.5774"
     style="font-style:normal;font-weight:normal;font-size:22.57740021px;font-family:sans-serif;text-anchor:start;fill:#000000"
     x="806.45001"
     y="-190.97083"
     id="text76">
    <tspan
       x="806.45001"
       y="-190.97083"
       id="tspan72">database</tspan>
    <tspan
       x="806.45001"
       y="-162.74883"
       id="tspan74">of suites</tspan>
  </text>
  <text
     font-size="12.7998"
     style="font-style:normal;font-weight:normal;font-size:12.79979992px;font-family:sans-serif;text-anchor:start;fill:#000000"
     x="840.25"
     y="-185.02083"
     id="text80">
    <tspan
       x="840.25"
       y="-185.02083"
       id="tspan78" />
  </text>
</svg>
